<mxfile host="app.diagrams.net" modified="2022-09-04T05:50:10.143Z" agent="5.0 (Windows NT 10.0; Win64; x64) AppleWebKit/537.36 (KHTML, like Gecko) Chrome/104.0.0.0 Safari/537.36" etag="bDvRwfqWuYGFYfmiCy1k" version="20.2.8" type="github">
  <diagram id="SozUrtcvZu2FABMTid3f" name="第 1 页">
    <mxGraphModel dx="984" dy="729" grid="0" gridSize="10" guides="1" tooltips="1" connect="1" arrows="1" fold="1" page="0" pageScale="1" pageWidth="827" pageHeight="1169" background="#ffffff" math="0" shadow="1">
      <root>
        <mxCell id="0" />
        <mxCell id="1" parent="0" />
        <mxCell id="qm5IvnxoZIjX2a5SjG0B-1" value="光纤光栅传感阵列" style="rounded=0;whiteSpace=wrap;html=1;fillColor=#fff2cc;strokeColor=#d6b656;" vertex="1" parent="1">
          <mxGeometry x="640" y="700" width="120" height="60" as="geometry" />
        </mxCell>
        <mxCell id="qm5IvnxoZIjX2a5SjG0B-2" value="光纤光栅解调仪" style="rounded=0;whiteSpace=wrap;html=1;fillColor=#f8cecc;strokeColor=#b85450;" vertex="1" parent="1">
          <mxGeometry x="640" y="620" width="120" height="60" as="geometry" />
        </mxCell>
        <mxCell id="qm5IvnxoZIjX2a5SjG0B-4" value="" style="endArrow=classic;html=1;rounded=0;exitX=0.5;exitY=0;exitDx=0;exitDy=0;entryX=0.5;entryY=1;entryDx=0;entryDy=0;" edge="1" parent="1" source="qm5IvnxoZIjX2a5SjG0B-1" target="qm5IvnxoZIjX2a5SjG0B-2">
          <mxGeometry width="50" height="50" relative="1" as="geometry">
            <mxPoint x="740" y="490" as="sourcePoint" />
            <mxPoint x="790" y="440" as="targetPoint" />
          </mxGeometry>
        </mxCell>
        <mxCell id="qm5IvnxoZIjX2a5SjG0B-5" value="共享文件给本地电脑" style="rounded=0;whiteSpace=wrap;html=1;fillColor=#f5f5f5;fontColor=#333333;strokeColor=#666666;" vertex="1" parent="1">
          <mxGeometry x="640" y="540" width="120" height="60" as="geometry" />
        </mxCell>
        <mxCell id="qm5IvnxoZIjX2a5SjG0B-6" value="" style="endArrow=classic;html=1;rounded=0;exitX=0.5;exitY=0;exitDx=0;exitDy=0;entryX=0.5;entryY=1;entryDx=0;entryDy=0;" edge="1" parent="1" source="qm5IvnxoZIjX2a5SjG0B-2" target="qm5IvnxoZIjX2a5SjG0B-5">
          <mxGeometry width="50" height="50" relative="1" as="geometry">
            <mxPoint x="680" y="620" as="sourcePoint" />
            <mxPoint x="730" y="570" as="targetPoint" />
          </mxGeometry>
        </mxCell>
        <mxCell id="qm5IvnxoZIjX2a5SjG0B-7" value="本地程序" style="rounded=0;whiteSpace=wrap;html=1;fillColor=#e1d5e7;strokeColor=#9673a6;" vertex="1" parent="1">
          <mxGeometry x="640" y="460" width="120" height="60" as="geometry" />
        </mxCell>
        <mxCell id="qm5IvnxoZIjX2a5SjG0B-8" value="" style="endArrow=classic;html=1;rounded=0;exitX=0.5;exitY=0;exitDx=0;exitDy=0;entryX=0.5;entryY=1;entryDx=0;entryDy=0;" edge="1" parent="1" source="qm5IvnxoZIjX2a5SjG0B-5" target="qm5IvnxoZIjX2a5SjG0B-7">
          <mxGeometry width="50" height="50" relative="1" as="geometry">
            <mxPoint x="680" y="620" as="sourcePoint" />
            <mxPoint x="730" y="570" as="targetPoint" />
          </mxGeometry>
        </mxCell>
        <mxCell id="qm5IvnxoZIjX2a5SjG0B-9" value="本地程序" style="swimlane;fontStyle=0;childLayout=stackLayout;horizontal=1;startSize=30;horizontalStack=0;resizeParent=1;resizeParentMax=0;resizeLast=0;collapsible=1;marginBottom=0;" vertex="1" parent="1">
          <mxGeometry x="810" y="450" width="230" height="140" as="geometry">
            <mxRectangle x="800" y="450" width="90" height="30" as="alternateBounds" />
          </mxGeometry>
        </mxCell>
        <mxCell id="qm5IvnxoZIjX2a5SjG0B-10" value="本地jar包程序利用oss提供的restful api将&#xa;解调仪收到的文件上传至阿里云&#xa;oss，可断点续传" style="text;strokeColor=none;fillColor=none;align=left;verticalAlign=middle;spacingLeft=4;spacingRight=4;overflow=hidden;points=[[0,0.5],[1,0.5]];portConstraint=eastwest;rotatable=0;" vertex="1" parent="qm5IvnxoZIjX2a5SjG0B-9">
          <mxGeometry y="30" width="230" height="50" as="geometry" />
        </mxCell>
        <mxCell id="qm5IvnxoZIjX2a5SjG0B-11" value="将所读取的本地目录地址存储到数据库，&#xa;也可以提前进行做一些数据处理的工作再&#xa;上传处理之后的文件" style="text;strokeColor=none;fillColor=none;align=left;verticalAlign=middle;spacingLeft=4;spacingRight=4;overflow=hidden;points=[[0,0.5],[1,0.5]];portConstraint=eastwest;rotatable=0;" vertex="1" parent="qm5IvnxoZIjX2a5SjG0B-9">
          <mxGeometry y="80" width="230" height="60" as="geometry" />
        </mxCell>
        <mxCell id="qm5IvnxoZIjX2a5SjG0B-14" value="阿里云OSS" style="rounded=0;whiteSpace=wrap;html=1;fillColor=#f0a30a;fontColor=#000000;strokeColor=#BD7000;" vertex="1" parent="1">
          <mxGeometry x="640" y="330" width="120" height="60" as="geometry" />
        </mxCell>
        <mxCell id="qm5IvnxoZIjX2a5SjG0B-17" value="阿里云OSS" style="swimlane;fontStyle=0;childLayout=stackLayout;horizontal=1;startSize=30;horizontalStack=0;resizeParent=1;resizeParentMax=0;resizeLast=0;collapsible=1;marginBottom=0;" vertex="1" parent="1">
          <mxGeometry x="810" y="260" width="500" height="180" as="geometry" />
        </mxCell>
        <mxCell id="qm5IvnxoZIjX2a5SjG0B-18" value="具有与平台无关的RESTful API接口，可以在任何应用、任何时间、任何地点存储和访问任意&#xa;类型的数据。可以使用阿里云提供的API、SDK接口或者OSS迁移工具轻松地将海量数据移入&#xa;或移出阿里云OSS" style="text;strokeColor=none;fillColor=none;align=left;verticalAlign=middle;spacingLeft=4;spacingRight=4;overflow=hidden;points=[[0,0.5],[1,0.5]];portConstraint=eastwest;rotatable=0;" vertex="1" parent="qm5IvnxoZIjX2a5SjG0B-17">
          <mxGeometry y="30" width="500" height="60" as="geometry" />
        </mxCell>
        <mxCell id="qm5IvnxoZIjX2a5SjG0B-19" value="数据存储到阿里云OSS以后，可以选择标准存储（Standard）作为移动应用、大型网站、&#xa;图片分享或热点音视频的主要存储方式，也可以选择成本更低、存储期限更长的低频访问存&#xa;储（Infrequent Access）、归档存储（Archive）、冷归档存储（Cold Archive）作为不经常访&#xa;问数据的存储方式。" style="text;strokeColor=none;fillColor=none;align=left;verticalAlign=middle;spacingLeft=4;spacingRight=4;overflow=hidden;points=[[0,0.5],[1,0.5]];portConstraint=eastwest;rotatable=0;" vertex="1" parent="qm5IvnxoZIjX2a5SjG0B-17">
          <mxGeometry y="90" width="500" height="90" as="geometry" />
        </mxCell>
        <mxCell id="qm5IvnxoZIjX2a5SjG0B-21" value="" style="strokeWidth=2;html=1;shape=mxgraph.flowchart.annotation_2;align=left;labelPosition=right;pointerEvents=1;" vertex="1" parent="1">
          <mxGeometry x="600" y="570" width="40" height="170" as="geometry" />
        </mxCell>
        <mxCell id="qm5IvnxoZIjX2a5SjG0B-22" value="端" style="whiteSpace=wrap;html=1;rounded=1;arcSize=50;align=center;verticalAlign=middle;strokeWidth=1;autosize=1;spacing=4;treeFolding=1;treeMoving=1;newEdgeStyle={&quot;edgeStyle&quot;:&quot;entityRelationEdgeStyle&quot;,&quot;startArrow&quot;:&quot;none&quot;,&quot;endArrow&quot;:&quot;none&quot;,&quot;segment&quot;:10,&quot;curved&quot;:1};" vertex="1" parent="1">
          <mxGeometry x="486" y="618" width="60" height="30" as="geometry" />
        </mxCell>
        <mxCell id="qm5IvnxoZIjX2a5SjG0B-23" value="" style="edgeStyle=entityRelationEdgeStyle;startArrow=none;endArrow=none;segment=10;curved=1;rounded=0;" edge="1" target="qm5IvnxoZIjX2a5SjG0B-22" parent="1" source="qm5IvnxoZIjX2a5SjG0B-21">
          <mxGeometry relative="1" as="geometry">
            <mxPoint x="440" y="660" as="sourcePoint" />
          </mxGeometry>
        </mxCell>
        <mxCell id="qm5IvnxoZIjX2a5SjG0B-24" value="边缘" style="whiteSpace=wrap;html=1;rounded=1;arcSize=50;align=center;verticalAlign=middle;strokeWidth=1;autosize=1;spacing=4;treeFolding=1;treeMoving=1;newEdgeStyle={&quot;edgeStyle&quot;:&quot;entityRelationEdgeStyle&quot;,&quot;startArrow&quot;:&quot;none&quot;,&quot;endArrow&quot;:&quot;none&quot;,&quot;segment&quot;:10,&quot;curved&quot;:1};" vertex="1" parent="1">
          <mxGeometry x="487" y="475" width="70" height="30" as="geometry" />
        </mxCell>
        <mxCell id="qm5IvnxoZIjX2a5SjG0B-25" value="" style="edgeStyle=entityRelationEdgeStyle;startArrow=none;endArrow=none;segment=10;curved=1;rounded=0;" edge="1" target="qm5IvnxoZIjX2a5SjG0B-24" parent="1" source="qm5IvnxoZIjX2a5SjG0B-7">
          <mxGeometry relative="1" as="geometry">
            <mxPoint x="446" y="517" as="sourcePoint" />
          </mxGeometry>
        </mxCell>
        <mxCell id="qm5IvnxoZIjX2a5SjG0B-26" value="管道监测系统" style="rounded=0;whiteSpace=wrap;html=1;fillColor=#76608a;fontColor=#ffffff;strokeColor=#432D57;" vertex="1" parent="1">
          <mxGeometry x="640" y="210" width="120" height="60" as="geometry" />
        </mxCell>
        <mxCell id="qm5IvnxoZIjX2a5SjG0B-27" value="管道监测系统" style="swimlane;fontStyle=0;childLayout=stackLayout;horizontal=1;startSize=30;horizontalStack=0;resizeParent=1;resizeParentMax=0;resizeLast=0;collapsible=1;marginBottom=0;" vertex="1" parent="1">
          <mxGeometry x="810" y="20" width="280" height="230" as="geometry" />
        </mxCell>
        <mxCell id="qm5IvnxoZIjX2a5SjG0B-28" value="对传感器的个数和类别进行维护，可当新增传感器，&#xa;删除传感器，更新传感器的相关属性时传感器的时&#xa;候需要在前台页面进行设置" style="text;strokeColor=none;fillColor=none;align=left;verticalAlign=middle;spacingLeft=4;spacingRight=4;overflow=hidden;points=[[0,0.5],[1,0.5]];portConstraint=eastwest;rotatable=0;" vertex="1" parent="qm5IvnxoZIjX2a5SjG0B-27">
          <mxGeometry y="30" width="280" height="60" as="geometry" />
        </mxCell>
        <mxCell id="qm5IvnxoZIjX2a5SjG0B-29" value="利用oss提供的restfulapi接口定时采集，定时解析，&#xa;将解析后的数据存储到数据库，转换成前台需要的&#xa;数据内容再次存储到数据库，同时也会定时删除一&#xa;些历史数据，释放服务器存储空间&#xa;" style="text;strokeColor=none;fillColor=none;align=left;verticalAlign=middle;spacingLeft=4;spacingRight=4;overflow=hidden;points=[[0,0.5],[1,0.5]];portConstraint=eastwest;rotatable=0;" vertex="1" parent="qm5IvnxoZIjX2a5SjG0B-27">
          <mxGeometry y="90" width="280" height="80" as="geometry" />
        </mxCell>
        <mxCell id="qm5IvnxoZIjX2a5SjG0B-30" value="每次打开大屏会先加载完上个月的或者上个星期的&#xa;历史数据或离目前最新的数据，设置图表为动态数&#xa;据展示，循环播放数据内容" style="text;strokeColor=none;fillColor=none;align=left;verticalAlign=middle;spacingLeft=4;spacingRight=4;overflow=hidden;points=[[0,0.5],[1,0.5]];portConstraint=eastwest;rotatable=0;" vertex="1" parent="qm5IvnxoZIjX2a5SjG0B-27">
          <mxGeometry y="170" width="280" height="60" as="geometry" />
        </mxCell>
        <mxCell id="qm5IvnxoZIjX2a5SjG0B-33" value="" style="strokeWidth=2;html=1;shape=mxgraph.flowchart.annotation_2;align=left;labelPosition=right;pointerEvents=1;" vertex="1" parent="1">
          <mxGeometry x="590" y="250" width="50" height="100" as="geometry" />
        </mxCell>
        <mxCell id="qm5IvnxoZIjX2a5SjG0B-34" value="云" style="whiteSpace=wrap;html=1;rounded=1;arcSize=50;align=center;verticalAlign=middle;strokeWidth=1;autosize=1;spacing=4;treeFolding=1;treeMoving=1;newEdgeStyle={&quot;edgeStyle&quot;:&quot;entityRelationEdgeStyle&quot;,&quot;startArrow&quot;:&quot;none&quot;,&quot;endArrow&quot;:&quot;none&quot;,&quot;segment&quot;:10,&quot;curved&quot;:1};" vertex="1" parent="1">
          <mxGeometry x="491" y="288" width="60" height="30" as="geometry" />
        </mxCell>
        <mxCell id="qm5IvnxoZIjX2a5SjG0B-35" value="" style="edgeStyle=entityRelationEdgeStyle;startArrow=none;endArrow=none;segment=10;curved=1;rounded=0;exitX=0;exitY=0.5;exitDx=0;exitDy=0;exitPerimeter=0;" edge="1" target="qm5IvnxoZIjX2a5SjG0B-34" parent="1" source="qm5IvnxoZIjX2a5SjG0B-33">
          <mxGeometry relative="1" as="geometry">
            <mxPoint x="445" y="330" as="sourcePoint" />
          </mxGeometry>
        </mxCell>
        <mxCell id="qm5IvnxoZIjX2a5SjG0B-37" value="" style="endArrow=none;dashed=1;html=1;rounded=0;exitX=1;exitY=0.5;exitDx=0;exitDy=0;entryX=-0.003;entryY=0.177;entryDx=0;entryDy=0;entryPerimeter=0;" edge="1" parent="1" source="qm5IvnxoZIjX2a5SjG0B-7" target="qm5IvnxoZIjX2a5SjG0B-10">
          <mxGeometry width="50" height="50" relative="1" as="geometry">
            <mxPoint x="760" y="530" as="sourcePoint" />
            <mxPoint x="800" y="490" as="targetPoint" />
          </mxGeometry>
        </mxCell>
        <mxCell id="qm5IvnxoZIjX2a5SjG0B-38" value="" style="endArrow=none;dashed=1;html=1;rounded=0;exitX=1;exitY=0.5;exitDx=0;exitDy=0;" edge="1" parent="1" source="qm5IvnxoZIjX2a5SjG0B-14">
          <mxGeometry width="50" height="50" relative="1" as="geometry">
            <mxPoint x="760" y="390" as="sourcePoint" />
            <mxPoint x="810" y="360" as="targetPoint" />
          </mxGeometry>
        </mxCell>
        <mxCell id="qm5IvnxoZIjX2a5SjG0B-39" value="" style="endArrow=none;dashed=1;html=1;rounded=0;exitX=1;exitY=0.5;exitDx=0;exitDy=0;" edge="1" parent="1" source="qm5IvnxoZIjX2a5SjG0B-26">
          <mxGeometry width="50" height="50" relative="1" as="geometry">
            <mxPoint x="760" y="260" as="sourcePoint" />
            <mxPoint x="810" y="210" as="targetPoint" />
          </mxGeometry>
        </mxCell>
        <mxCell id="qm5IvnxoZIjX2a5SjG0B-40" value="数据库" style="rounded=0;whiteSpace=wrap;html=1;fillColor=#647687;fontColor=#ffffff;strokeColor=#314354;" vertex="1" parent="1">
          <mxGeometry x="1410" y="350" width="120" height="60" as="geometry" />
        </mxCell>
        <mxCell id="qm5IvnxoZIjX2a5SjG0B-41" value="" style="endArrow=classic;html=1;rounded=0;exitX=1.004;exitY=0.75;exitDx=0;exitDy=0;exitPerimeter=0;entryX=0.5;entryY=1;entryDx=0;entryDy=0;" edge="1" parent="1" source="qm5IvnxoZIjX2a5SjG0B-10" target="qm5IvnxoZIjX2a5SjG0B-40">
          <mxGeometry width="50" height="50" relative="1" as="geometry">
            <mxPoint x="970" y="470" as="sourcePoint" />
            <mxPoint x="1020" y="420" as="targetPoint" />
          </mxGeometry>
        </mxCell>
        <mxCell id="qm5IvnxoZIjX2a5SjG0B-42" value="" style="endArrow=classic;html=1;rounded=0;exitX=0.5;exitY=0;exitDx=0;exitDy=0;entryX=0.5;entryY=1;entryDx=0;entryDy=0;" edge="1" parent="1" source="qm5IvnxoZIjX2a5SjG0B-14" target="qm5IvnxoZIjX2a5SjG0B-26">
          <mxGeometry width="50" height="50" relative="1" as="geometry">
            <mxPoint x="970" y="470" as="sourcePoint" />
            <mxPoint x="1020" y="420" as="targetPoint" />
          </mxGeometry>
        </mxCell>
        <mxCell id="qm5IvnxoZIjX2a5SjG0B-43" value="" style="endArrow=classic;html=1;rounded=0;exitX=0.5;exitY=0;exitDx=0;exitDy=0;entryX=0.5;entryY=1;entryDx=0;entryDy=0;" edge="1" parent="1" source="qm5IvnxoZIjX2a5SjG0B-7" target="qm5IvnxoZIjX2a5SjG0B-14">
          <mxGeometry width="50" height="50" relative="1" as="geometry">
            <mxPoint x="970" y="470" as="sourcePoint" />
            <mxPoint x="1020" y="420" as="targetPoint" />
          </mxGeometry>
        </mxCell>
        <mxCell id="qm5IvnxoZIjX2a5SjG0B-45" value="" style="endArrow=classic;html=1;rounded=0;exitX=1;exitY=0.5;exitDx=0;exitDy=0;entryX=0.75;entryY=0;entryDx=0;entryDy=0;" edge="1" parent="1" source="qm5IvnxoZIjX2a5SjG0B-29" target="qm5IvnxoZIjX2a5SjG0B-40">
          <mxGeometry width="50" height="50" relative="1" as="geometry">
            <mxPoint x="970" y="470" as="sourcePoint" />
            <mxPoint x="1020" y="420" as="targetPoint" />
          </mxGeometry>
        </mxCell>
      </root>
    </mxGraphModel>
  </diagram>
</mxfile>
